<?xml version="1.0" encoding="UTF-8"?>
<svg xmlns="http://www.w3.org/2000/svg" xmlns:xlink="http://www.w3.org/1999/xlink" width="100px" height="100px" viewBox="0 0 100 100" version="1.1">
<g id="surface1">
<path style=" stroke:none;fill-rule:nonzero;fill:rgb(0%,93.72549%,54.509804%);fill-opacity:1;" d="M 100 50 C 100 77.613281 77.613281 100 50 100 C 22.386719 100 0 77.613281 0 50 C 0 22.386719 22.386719 0 50 0 C 77.613281 0 100 22.386719 100 50 Z M 100 50 "/>
<path style=" stroke:none;fill-rule:nonzero;fill:rgb(100%,100%,100%);fill-opacity:1;" d="M 57.800781 42.199219 L 71.898438 42.199219 L 71.898438 56.300781 L 57.800781 56.300781 Z M 57.800781 42.199219 "/>
<path style=" stroke:none;fill-rule:nonzero;fill:rgb(100%,100%,100%);fill-opacity:1;" d="M 43.699219 61.601562 C 43.699219 64.5 41.300781 66.898438 38.398438 66.898438 C 35.5 66.898438 33.101562 64.5 33.101562 61.601562 C 33.101562 58.699219 35.5 56.300781 38.398438 56.300781 L 43.699219 56.300781 L 43.699219 42.199219 L 38.398438 42.199219 C 27.699219 42.199219 19 50.898438 19 61.601562 C 19 72.300781 27.699219 81 38.398438 81 C 49.101562 81 57.800781 72.300781 57.800781 61.601562 L 57.800781 56.300781 L 43.699219 56.300781 Z M 43.699219 61.601562 "/>
<path style=" stroke:none;fill-rule:nonzero;fill:rgb(100%,100%,100%);fill-opacity:1;" d="M 63.101562 35.101562 L 79 35.101562 L 79 21 L 63.101562 21 C 52.398438 21 43.699219 29.699219 43.699219 40.398438 L 43.699219 42.199219 L 57.800781 42.199219 L 57.800781 40.398438 C 57.800781 37.5 60.199219 35.101562 63.101562 35.101562 Z M 63.101562 35.101562 "/>
<path style=" stroke:none;fill-rule:nonzero;fill:rgb(8.627451%,100%,60%);fill-opacity:1;" d="M 57.800781 42.199219 L 43.699219 42.199219 L 43.699219 56.300781 L 57.800781 56.300781 Z M 57.800781 42.199219 "/>
</g>
</svg>
