<svg xmlns:xlink="http://www.w3.org/1999/xlink" xmlns="http://www.w3.org/2000/svg" viewBox="0 0 84 29" focusable="false" class="chakra-icon css-13ygpsn" aria-label="Gaia" width="84"  height="29" ><path fill-rule="evenodd" clip-rule="evenodd" d="M33.0233 5.00973C34.8499 5.00973 36.4736 5.53285 37.8939 6.61892C37.7718 4.52681 41.2221 4.52681 41.1 6.61892V21.7247C41.1 25.2146 37.4851 28.0544 33.0441 28.0544C29.5359 28.0544 26.544 26.2824 25.4421 23.8176C24.9987 22.8247 25.7993 21.7251 26.9295 21.7251C27.5576 21.7251 28.1414 22.0707 28.3852 22.6241C28.9812 23.9769 30.8733 24.9965 33.0441 24.9965C35.6743 24.9965 37.8939 23.4984 37.8939 21.7247V19.3723C36.4736 20.4583 34.8499 20.9818 33.0233 20.9818C30.7912 20.9818 28.9241 20.2175 27.3408 18.6485C25.7584 17.0795 24.987 15.2282 24.987 13.0159C24.987 10.8031 25.7584 8.91248 27.3408 7.3435C28.9241 5.77451 30.7912 5.00973 33.0233 5.00973ZM14.6617 19.1778L14.7517 19.1801C15.56 19.2159 16.3219 19.6655 16.6935 20.4121C17.2307 21.4906 16.751 22.7813 15.622 23.2941C13.5491 24.2362 11.3355 24.7318 9.03868 24.7685L8.76266 24.7707C6.36674 24.7707 4.05917 24.2739 1.9033 23.2941C0.774308 22.7813 0.294206 21.4906 0.831403 20.4121C1.21708 19.6378 2.02187 19.183 2.86313 19.1778L2.95338 19.179C3.25459 19.1887 3.5587 19.2563 3.84829 19.3878C5.39153 20.0893 7.04522 20.4448 8.76266 20.4448C10.4801 20.4448 12.1334 20.0893 13.6766 19.3878C13.9951 19.2432 14.3312 19.1758 14.6617 19.1778ZM65.3341 6.61912V19.5333C65.4558 21.6254 62.0055 21.6254 62.1276 19.5333V6.61912C62.0055 4.52701 65.4558 4.52701 65.3341 6.61912ZM51.1666 5.00976C52.9933 5.00976 54.6169 5.53289 56.0377 6.61896C55.9156 4.52685 59.325 4.52685 59.2433 6.61896V19.3719C59.325 21.464 55.9156 21.464 56.0377 19.3719C54.6169 20.4584 52.9933 20.9815 51.1666 20.9815C48.9349 20.9815 47.0674 20.2171 45.4842 18.6485C43.9018 17.0795 43.1308 15.2283 43.1308 13.0159C43.1308 10.8032 43.9018 8.91252 45.4842 7.34354C47.0674 5.77455 48.9349 5.00976 51.1666 5.00976ZM75.4402 5.00976C77.2668 5.00976 78.8905 5.53289 80.3112 6.61896C80.1895 4.52685 83.5986 4.52685 83.5173 6.61896V19.3719C83.5986 21.464 80.1895 21.464 80.3112 19.3719C78.8905 20.4584 77.2668 20.9815 75.4402 20.9815C73.2085 20.9815 71.341 20.2171 69.7581 18.6485C68.1753 17.0795 67.4043 15.2283 67.4043 13.0159C67.4043 10.8032 68.1753 8.91252 69.7581 7.34354C71.341 5.77455 73.2085 5.00976 75.4402 5.00976ZM51.1666 8.18834C49.8272 8.18834 48.6911 8.67126 47.7576 9.59649C46.824 10.5213 46.3369 11.6886 46.3369 13.0159C46.3369 14.3437 46.824 15.4699 47.7576 16.3952C48.6911 17.3204 49.8272 17.8033 51.1666 17.8033C52.5061 17.8033 53.683 17.3204 54.6169 16.3952C55.5505 15.4699 56.0377 14.3437 56.0377 13.0159C56.0377 11.6886 55.5505 10.5213 54.6169 9.59649C53.683 8.67126 52.5061 8.18834 51.1666 8.18834ZM75.4402 8.18834C74.1007 8.18834 72.9647 8.67126 72.0311 9.59649C71.098 10.5213 70.6108 11.6886 70.6108 13.0159C70.6108 14.3437 71.098 15.4699 72.0311 16.3952C72.9647 17.3204 74.1007 17.8033 75.4402 17.8033C76.7796 17.8033 77.957 17.3204 78.8905 16.3952C79.824 15.4699 80.3112 14.3437 80.3112 13.0159C80.3112 11.6886 79.824 10.5213 78.8905 9.59649C77.957 8.67126 76.7796 8.18834 75.4402 8.18834ZM33.0233 8.1883C31.6838 8.1883 30.5474 8.67122 29.6142 9.59605C28.6807 10.5213 28.1935 11.6886 28.1935 13.0159C28.1935 14.3436 28.6807 15.4699 29.6142 16.3951C30.5474 17.3203 31.6838 17.8033 33.0233 17.8033C34.3627 17.8033 35.5397 17.3203 36.4736 16.3951C37.4067 15.4699 37.8939 14.3436 37.8939 13.0159C37.8939 11.6886 37.4067 10.5213 36.4736 9.59605C35.5397 8.67122 34.3627 8.1883 33.0233 8.1883ZM8.76262 2.37808C13.1848 2.37808 16.7701 5.8027 16.7701 10.0271C16.7701 14.252 13.1848 17.6766 8.76262 17.6766C4.34044 17.6766 0.755095 14.252 0.755095 10.0271C0.755095 5.8027 4.34044 2.37808 8.76262 2.37808ZM63.7308 0C64.784 0 65.6379 0.815745 65.6379 1.82179C65.6379 2.82744 64.784 3.64318 63.7308 3.64318C62.6773 3.64318 61.8242 2.82744 61.8242 1.82179C61.8242 0.815745 62.6773 0 63.7308 0Z" fill="black"></path></svg>