<?xml version="1.0" encoding="UTF-8"?>
<svg xmlns="http://www.w3.org/2000/svg" xmlns:xlink="http://www.w3.org/1999/xlink" width="100px" height="100px" viewBox="0 0 100 29" version="1.1">
<g id="surface1">
<path style=" stroke:none;fill-rule:evenodd;fill:rgb(18.431373%,11.372549%,34.509804%);fill-opacity:1;" d="M 88.429688 7.359375 L 92.253906 7.359375 L 92.253906 9.273438 C 92.820312 7.957031 93.957031 7.046875 95.65625 7.046875 C 98.285156 7.046875 99.71875 8.960938 99.71875 11.441406 C 99.71875 12.039062 99.660156 12.664062 99.511719 13.292969 L 95.894531 13.292969 C 95.984375 12.886719 96.015625 12.539062 96.015625 12.164062 C 96.015625 11.09375 95.300781 10.3125 94.222656 10.3125 C 93.03125 10.3125 92.253906 11.160156 92.253906 12.664062 L 92.253906 22.242188 L 88.429688 22.242188 Z M 88.429688 7.359375 "/>
<path style=" stroke:none;fill-rule:evenodd;fill:rgb(18.431373%,11.372549%,34.509804%);fill-opacity:1;" d="M 79.398438 19.101562 C 81.21875 19.101562 82.265625 18.128906 82.683594 16.558594 L 85.9375 17.910156 C 84.984375 20.734375 82.742188 22.554688 79.339844 22.554688 C 74.980469 22.554688 71.84375 19.480469 71.84375 14.707031 C 71.84375 10.46875 74.652344 7.046875 78.890625 7.046875 C 82.804688 7.046875 85.460938 9.621094 85.460938 13.734375 C 85.460938 14.390625 85.402344 14.988281 85.28125 15.554688 L 75.667969 15.554688 C 75.726562 17.910156 77.488281 19.101562 79.398438 19.101562 Z M 78.890625 10.277344 C 77.367188 10.277344 76.023438 11.222656 75.667969 12.886719 L 81.726562 12.886719 C 81.726562 12.886719 81.757812 12.824219 81.757812 12.757812 C 81.757812 11.253906 80.59375 10.277344 78.890625 10.277344 Z M 78.890625 10.277344 "/>
<path style=" stroke:none;fill-rule:evenodd;fill:rgb(18.431373%,11.372549%,34.509804%);fill-opacity:1;" d="M 58.003906 7.359375 L 54.332031 7.359375 L 54.332031 28.457031 L 58.152344 28.457031 L 58.152344 20.328125 C 58.898438 21.707031 60.542969 22.554688 62.484375 22.554688 C 66.425781 22.554688 69.351562 19.574219 69.351562 14.863281 C 69.351562 10.152344 66.515625 7.046875 62.691406 7.046875 C 60.8125 7.046875 59.019531 8.082031 58.003906 9.589844 Z M 61.765625 19.132812 C 59.824219 19.132812 58.003906 17.625 58.003906 14.863281 C 58.003906 12.039062 59.824219 10.5 61.765625 10.5 C 63.796875 10.5 65.527344 12.101562 65.527344 14.863281 C 65.527344 17.5625 63.796875 19.132812 61.765625 19.132812 Z M 61.765625 19.132812 "/>
<path style=" stroke:none;fill-rule:evenodd;fill:rgb(18.431373%,11.372549%,34.509804%);fill-opacity:1;" d="M 40.492188 7.359375 L 36.816406 7.359375 L 36.816406 28.457031 L 40.640625 28.457031 L 40.640625 20.328125 C 41.386719 21.707031 43.027344 22.554688 44.96875 22.554688 C 48.910156 22.554688 51.839844 19.574219 51.839844 14.863281 C 51.839844 10.152344 49 7.046875 45.179688 7.046875 C 43.296875 7.046875 41.507812 8.082031 40.492188 9.589844 Z M 44.253906 19.132812 C 42.3125 19.132812 40.492188 17.625 40.492188 14.863281 C 40.492188 12.039062 42.3125 10.5 44.253906 10.5 C 46.285156 10.5 48.015625 12.101562 48.015625 14.863281 C 48.015625 17.5625 46.285156 19.132812 44.253906 19.132812 Z M 44.253906 19.132812 "/>
<path style=" stroke:none;fill-rule:evenodd;fill:rgb(18.431373%,11.372549%,34.509804%);fill-opacity:1;" d="M 20.601562 17.941406 C 20.601562 20.859375 22.871094 22.554688 25.261719 22.554688 C 27.648438 22.554688 29.054688 21.613281 29.949219 19.949219 L 29.949219 22.242188 L 33.441406 22.242188 L 33.441406 13.074219 C 33.441406 9.242188 31.261719 7.046875 26.933594 7.046875 C 23.410156 7.046875 21.257812 8.960938 20.511719 11.722656 L 23.828125 12.664062 C 24.125 11.222656 25.140625 10.183594 26.902344 10.183594 C 28.605469 10.183594 29.800781 11.125 29.800781 12.855469 L 29.800781 13.796875 L 28.546875 13.480469 C 27.738281 13.261719 26.933594 13.167969 26.125 13.167969 C 22.929688 13.167969 20.601562 14.644531 20.601562 17.941406 Z M 29.800781 16.746094 C 29.800781 18.503906 28.484375 19.480469 26.785156 19.480469 C 25.230469 19.480469 24.484375 18.726562 24.484375 17.6875 C 24.484375 16.496094 25.378906 15.898438 26.722656 15.898438 C 27.378906 15.898438 28.066406 16.054688 28.933594 16.339844 L 29.800781 16.621094 Z M 29.800781 16.746094 "/>
<path style=" stroke:none;fill-rule:evenodd;fill:rgb(18.431373%,11.372549%,34.509804%);fill-opacity:1;" d="M 0 0.261719 L 0 22.242188 L 8.152344 22.242188 C 15.019531 22.242188 18.902344 17.59375 18.902344 11.410156 C 18.902344 4.816406 15.082031 0.261719 8.0625 0.261719 Z M 4.03125 18.378906 L 4.03125 4.09375 L 8.003906 4.09375 C 12.632812 4.09375 14.871094 7.078125 14.871094 11.410156 C 14.871094 15.238281 12.691406 18.378906 8.0625 18.378906 Z M 4.03125 18.378906 "/>
</g>
</svg>
