<?xml version="1.0" encoding="UTF-8"?>
<svg xmlns="http://www.w3.org/2000/svg" xmlns:xlink="http://www.w3.org/1999/xlink" width="100px" height="100px" viewBox="0 0 100 34" version="1.1">
<g id="surface1">
<path style=" stroke:none;fill-rule:evenodd;fill:rgb(0%,0%,0%);fill-opacity:1;" d="M 39.3125 5.875 C 41.488281 5.875 43.421875 6.488281 45.113281 7.761719 C 44.964844 5.308594 49.074219 5.308594 48.929688 7.761719 L 48.929688 25.46875 C 48.929688 29.5625 44.625 32.890625 39.339844 32.890625 C 35.160156 32.890625 31.601562 30.8125 30.289062 27.925781 C 29.761719 26.761719 30.714844 25.472656 32.058594 25.472656 C 32.808594 25.472656 33.5 25.875 33.792969 26.523438 C 34.5 28.109375 36.753906 29.304688 39.339844 29.304688 C 42.46875 29.304688 45.113281 27.550781 45.113281 25.46875 L 45.113281 22.710938 C 43.421875 23.984375 41.488281 24.597656 39.3125 24.597656 C 36.65625 24.597656 34.433594 23.703125 32.546875 21.863281 C 30.664062 20.023438 29.746094 17.855469 29.746094 15.261719 C 29.746094 12.664062 30.664062 10.449219 32.546875 8.609375 C 34.433594 6.769531 36.65625 5.875 39.3125 5.875 Z M 17.453125 22.484375 L 17.5625 22.488281 C 18.523438 22.527344 19.429688 23.054688 19.875 23.929688 C 20.511719 25.195312 19.941406 26.710938 18.597656 27.308594 C 16.128906 28.414062 13.496094 28.996094 10.761719 29.039062 L 10.433594 29.042969 C 7.578125 29.042969 4.832031 28.460938 2.265625 27.308594 C 0.921875 26.710938 0.351562 25.195312 0.988281 23.929688 C 1.449219 23.023438 2.40625 22.492188 3.410156 22.484375 L 3.515625 22.484375 C 3.875 22.496094 4.238281 22.578125 4.582031 22.730469 C 6.417969 23.554688 8.386719 23.96875 10.433594 23.96875 C 12.476562 23.96875 14.445312 23.554688 16.28125 22.730469 C 16.660156 22.5625 17.0625 22.480469 17.453125 22.484375 Z M 77.777344 7.761719 L 77.777344 22.902344 C 77.921875 25.355469 73.816406 25.355469 73.960938 22.902344 L 73.960938 7.761719 C 73.816406 5.308594 77.921875 5.308594 77.777344 7.761719 Z M 60.914062 5.875 C 63.085938 5.875 65.019531 6.488281 66.710938 7.761719 C 66.566406 5.308594 70.625 5.308594 70.527344 7.761719 L 70.527344 22.710938 C 70.625 25.164062 66.566406 25.164062 66.710938 22.710938 C 65.019531 23.984375 63.085938 24.597656 60.914062 24.597656 C 58.253906 24.597656 56.03125 23.703125 54.148438 21.863281 C 52.265625 20.023438 51.347656 17.855469 51.347656 15.261719 C 51.347656 12.664062 52.265625 10.449219 54.148438 8.609375 C 56.03125 6.769531 58.253906 5.875 60.914062 5.875 Z M 89.808594 5.875 C 91.984375 5.875 93.917969 6.488281 95.609375 7.761719 C 95.464844 5.308594 99.523438 5.308594 99.425781 7.761719 L 99.425781 22.710938 C 99.523438 25.164062 95.464844 25.164062 95.609375 22.710938 C 93.917969 23.984375 91.984375 24.597656 89.808594 24.597656 C 87.152344 24.597656 84.929688 23.703125 83.046875 21.863281 C 81.160156 20.023438 80.242188 17.855469 80.242188 15.261719 C 80.242188 12.664062 81.160156 10.449219 83.046875 8.609375 C 84.929688 6.769531 87.152344 5.875 89.808594 5.875 Z M 60.914062 9.601562 C 59.316406 9.601562 57.964844 10.167969 56.855469 11.25 C 55.742188 12.335938 55.164062 13.703125 55.164062 15.261719 C 55.164062 16.816406 55.742188 18.136719 56.855469 19.222656 C 57.964844 20.308594 59.316406 20.871094 60.914062 20.871094 C 62.507812 20.871094 63.910156 20.308594 65.019531 19.222656 C 66.132812 18.136719 66.710938 16.816406 66.710938 15.261719 C 66.710938 13.703125 66.132812 12.335938 65.019531 11.25 C 63.910156 10.167969 62.507812 9.601562 60.914062 9.601562 Z M 89.808594 9.601562 C 88.214844 9.601562 86.863281 10.167969 85.75 11.25 C 84.640625 12.335938 84.058594 13.703125 84.058594 15.261719 C 84.058594 16.816406 84.640625 18.136719 85.75 19.222656 C 86.863281 20.308594 88.214844 20.871094 89.808594 20.871094 C 91.402344 20.871094 92.804688 20.308594 93.917969 19.222656 C 95.027344 18.136719 95.609375 16.816406 95.609375 15.261719 C 95.609375 13.703125 95.027344 12.335938 93.917969 11.25 C 92.804688 10.167969 91.402344 9.601562 89.808594 9.601562 Z M 39.3125 9.601562 C 37.71875 9.601562 36.367188 10.167969 35.253906 11.25 C 34.144531 12.335938 33.5625 13.703125 33.5625 15.261719 C 33.5625 16.816406 34.144531 18.136719 35.253906 19.222656 C 36.367188 20.304688 37.71875 20.871094 39.3125 20.871094 C 40.90625 20.871094 42.308594 20.304688 43.421875 19.222656 C 44.53125 18.136719 45.113281 16.816406 45.113281 15.261719 C 45.113281 13.703125 44.53125 12.335938 43.421875 11.25 C 42.308594 10.167969 40.90625 9.601562 39.3125 9.601562 Z M 10.433594 2.789062 C 15.695312 2.789062 19.964844 6.804688 19.964844 11.757812 C 19.964844 16.710938 15.695312 20.722656 10.433594 20.722656 C 5.167969 20.722656 0.898438 16.710938 0.898438 11.757812 C 0.898438 6.804688 5.167969 2.789062 10.433594 2.789062 Z M 75.871094 0 C 77.125 0 78.140625 0.957031 78.140625 2.136719 C 78.140625 3.316406 77.125 4.269531 75.871094 4.269531 C 74.617188 4.269531 73.601562 3.316406 73.601562 2.136719 C 73.601562 0.957031 74.617188 0 75.871094 0 Z M 75.871094 0 "/>
</g>
</svg>
